<svg width="500" height="500" fill="none" xmlns="http://www.w3.org/2000/svg"><path d="M69.408 119.271c-4.674-25.62 12.306-50.18 37.926-54.854l115.149-21.01c25.62-4.674 50.179 12.306 54.854 37.927l54.807 300.394c4.674 25.62-12.306 50.179-37.926 54.853L179.069 457.59c-25.62 4.675-50.179-12.305-54.853-37.926L69.408 119.271z" fill="url(#paint0_linear)"/><path fill-rule="evenodd" clip-rule="evenodd" d="M109.178 74.52c-20.042 3.656-33.324 22.867-29.668 42.908l54.808 300.394c3.656 20.042 22.867 33.324 42.909 29.668l115.148-21.009c20.042-3.657 33.324-22.868 29.668-42.91L267.235 83.178c-3.656-20.042-22.867-33.324-42.909-29.668L109.178 74.52zm-49.871 46.595c-5.692-31.2 14.985-61.107 46.185-66.799L220.64 33.307c31.2-5.692 61.106 14.985 66.799 46.184l54.807 300.394c5.692 31.2-14.985 61.106-46.184 66.799l-115.149 21.009c-31.199 5.692-61.106-14.985-66.799-46.185L59.307 121.115z" fill="url(#paint1_linear)"/><path d="M143.226 323.625c-1.018-5.579 2.679-10.927 8.258-11.945l116.169-21.195c5.579-1.018 10.927 2.68 11.945 8.259l1.843 10.101c1.018 5.579-2.679 10.927-8.258 11.945l-116.169 21.195c-5.579 1.018-10.927-2.679-11.945-8.258l-1.843-10.102zM153.708 381.072c-1.018-5.579 2.68-10.926 8.259-11.944l116.169-21.196c5.579-1.018 10.927 2.68 11.945 8.259l1.843 10.102c1.018 5.579-2.68 10.926-8.259 11.944l-116.169 21.196c-5.579 1.018-10.927-2.68-11.945-8.259l-1.843-10.102z" fill="#C1C1FF"/><path fill-rule="evenodd" clip-rule="evenodd" d="M120.377 198.383c-6.871-37.658 18.088-73.756 55.746-80.627 37.658-6.871 73.756 18.088 80.627 55.746 6.87 37.657-18.088 73.756-55.746 80.626-37.658 6.871-73.756-18.087-80.627-55.745zm59.89-57.898c-25.104 4.581-41.743 28.645-37.163 53.751l90.914-16.587c-4.58-25.107-28.646-41.744-53.751-37.164z" fill="#fff"/><path fill-rule="evenodd" clip-rule="evenodd" d="M59.308 121.114c-5.693-31.199 14.985-61.106 46.184-66.798l115.149-21.01c31.199-5.692 61.106 14.986 66.798 46.185l54.808 300.394c5.692 31.2-14.985 61.106-46.185 66.799l-115.148 21.009c-31.2 5.692-61.106-14.985-66.799-46.185L59.308 121.114z" fill="url(#paint2_linear)" style="mix-blend-mode:overlay"/><path d="M345.592 205C287.827 205 241 251.562 241 309c0 21.648 6.645 41.754 18.048 58.389l-2.224 38.952 43.518-3.548c13.704 6.53 29.037 10.207 45.25 10.207 57.764 0 104.592-46.562 104.592-104s-46.828-104-104.592-104z" fill="#FCDA5B"/><path d="M345.592 205C287.827 205 241 251.562 241 309c0 21.648 6.645 41.754 18.048 58.389l-2.224 38.952 43.518-3.548c13.704 6.53 29.037 10.207 45.25 10.207 57.764 0 104.592-46.562 104.592-104s-46.828-104-104.592-104z" fill="url(#paint3_linear)" style="mix-blend-mode:overlay"/><path d="M393.039 320.673c-6.483 0-11.739-5.226-11.739-11.673 0-6.446 5.256-11.672 11.739-11.672 6.484 0 11.739 5.226 11.739 11.672 0 6.447-5.255 11.673-11.739 11.673zM345.591 320.673c-6.483 0-11.739-5.226-11.739-11.673 0-6.446 5.256-11.672 11.739-11.672 6.483 0 11.739 5.226 11.739 11.672 0 6.447-5.256 11.673-11.739 11.673zM298.146 320.673c-6.484 0-11.739-5.226-11.739-11.673 0-6.446 5.255-11.672 11.739-11.672 6.483 0 11.739 5.226 11.739 11.672 0 6.447-5.256 11.673-11.739 11.673z" fill="#fff"/><defs><linearGradient id="paint0_linear" x1="212.861" y1="451.425" x2="141.126" y2="58.252" gradientUnits="userSpaceOnUse"><stop stop-color="#5833EF"/><stop offset="1" stop-color="#43239C"/></linearGradient><linearGradient id="paint1_linear" x1="212.394" y1="461.949" x2="136.972" y2="48.572" gradientUnits="userSpaceOnUse"><stop stop-color="#43239C"/><stop offset="1" stop-color="#5833EF"/></linearGradient><linearGradient id="paint2_linear" x1="150.593" y1="182.823" x2="323.771" y2="479.953" gradientUnits="userSpaceOnUse"><stop stop-color="#D52A4E" stop-opacity="0"/><stop offset="0" stop-color="#D52A4E" stop-opacity=".025"/><stop offset="1" stop-color="#D52A4E"/></linearGradient><linearGradient id="paint3_linear" x1="382.449" y1="276.734" x2="319.635" y2="442.752" gradientUnits="userSpaceOnUse"><stop stop-color="#D52A4E" stop-opacity="0"/><stop offset="0" stop-color="#D52A4E" stop-opacity=".025"/><stop offset="1" stop-color="#D52A4E"/></linearGradient></defs></svg>