<svg width="94" height="93" fill="none" xmlns="http://www.w3.org/2000/svg"><g clip-path="url(#clip0)"><g clip-path="url(#clip1)"><path transform="rotate(-180 99.5 99)" fill="url(#paint0_linear)" d="M99.5 99h101v103h-101z"/><g opacity=".7" filter="url(#filter0_f)"><path d="M-21.826 30.381s61.251-.53 78.893 11.547c17.642 12.078 25.686 36.19 25.686 36.19L99.406 36.11s-19.37-23.887-27.29-29.166C64.195 1.666 31.283-6.283 31.283-6.283L1.729-21.223-21.826 30.38z" fill="url(#paint1_linear)"/></g><g opacity=".7" filter="url(#filter1_f)"><path d="M20.044 92.158l35.5-2.538 15.5-3.462 15.485-6.5L93 68.5l2-13 19.765 27.996-28.236 28.87-13.313-8.63-53.172-11.578z" fill="url(#paint2_linear)"/></g><g filter="url(#filter2_f)"><ellipse cx="79.684" cy="80.158" rx="30" ry="21.5" transform="rotate(-9.665 79.684 80.158)" fill="url(#paint3_linear)"/></g></g><path fill-rule="evenodd" clip-rule="evenodd" d="M16.5 46.775C16.5 30.331 29.931 17 46.5 17a30.115 30.115 0 0121.213 8.721A29.662 29.662 0 0176.5 46.775c0 16.445-13.431 29.775-30 29.775-16.569 0-30-13.33-30-29.775zm10.036-1.194c-.04.658.499 1.194 1.158 1.194h37.612c.66 0 1.198-.536 1.159-1.194-.623-10.407-9.323-18.656-19.965-18.656S27.158 35.174 26.536 45.58z" fill="#fff"/></g><defs><linearGradient id="paint0_linear" x1="118.116" y1="186.233" x2="155.539" y2="120.39" gradientUnits="userSpaceOnUse"><stop stop-color="#1C0839"/><stop offset="1" stop-color="#3D3DB1"/></linearGradient><linearGradient id="paint1_linear" x1="62.962" y1="50.69" x2="14.239" y2="16.584" gradientUnits="userSpaceOnUse"><stop stop-color="#CD226E" stop-opacity="0"/><stop offset=".901" stop-color="#C3207B"/></linearGradient><linearGradient id="paint2_linear" x1="91.927" y1="39.47" x2="66.522" y2="118.854" gradientUnits="userSpaceOnUse"><stop stop-color="#29BFA9" stop-opacity=".4"/><stop offset=".755" stop-color="#29BFA9"/><stop offset="1" stop-color="#29BFA9"/></linearGradient><linearGradient id="paint3_linear" x1="61.326" y1="61.47" x2="87.214" y2="89.269" gradientUnits="userSpaceOnUse"><stop stop-color="#29BFA9" stop-opacity="0"/><stop offset="1" stop-color="#29BFA9" stop-opacity=".62"/></linearGradient><filter id="filter0_f" x="-49.826" y="-49.223" width="177.232" height="155.341" filterUnits="userSpaceOnUse" color-interpolation-filters="sRGB"><feFlood flood-opacity="0" result="BackgroundImageFix"/><feBlend in="SourceGraphic" in2="BackgroundImageFix" result="shape"/><feGaussianBlur stdDeviation="14" result="effect1_foregroundBlur"/></filter><filter id="filter1_f" x="8.044" y="43.5" width="118.721" height="80.867" filterUnits="userSpaceOnUse" color-interpolation-filters="sRGB"><feFlood flood-opacity="0" result="BackgroundImageFix"/><feBlend in="SourceGraphic" in2="BackgroundImageFix" result="shape"/><feGaussianBlur stdDeviation="6" result="effect1_foregroundBlur"/></filter><filter id="filter2_f" x="33.887" y="42.368" width="91.593" height="75.58" filterUnits="userSpaceOnUse" color-interpolation-filters="sRGB"><feFlood flood-opacity="0" result="BackgroundImageFix"/><feBlend in="SourceGraphic" in2="BackgroundImageFix" result="shape"/><feGaussianBlur stdDeviation="8" result="effect1_foregroundBlur"/></filter><clipPath id="clip0"><path d="M.5 28c0-15.464 12.536-28 28-28h37c15.464 0 28 12.536 28 28v37c0 15.464-12.536 28-28 28h-37C13.036 93 .5 80.464.5 65V28z" fill="#fff"/></clipPath><clipPath id="clip1"><path fill="#fff" transform="translate(.5)" d="M0 0h93v93H0z"/></clipPath></defs></svg>