<svg width="500" height="500" fill="none" xmlns="http://www.w3.org/2000/svg"><path d="M247.454 335.514c14.693 0 26.604-14.97 26.604-33.437s-11.911-33.438-26.604-33.438-26.603 14.971-26.603 33.438c0 18.467 11.91 33.437 26.603 33.437z" fill="#170E35"/><path d="M265.955 268.639h-18.501c-14.693 0-26.603 14.971-26.603 33.438 0 18.467 11.91 33.437 26.603 33.437h18.501c14.693 0 26.604-14.97 26.604-33.437s-11.911-33.438-26.604-33.438z" fill="#170E35"/><path d="M467.352 308.759a111.355 111.355 0 00-1.689-2.328c0-5.337 1.059-17.198 1.059-26.999 0-1.067-1.353-3.614-3.194-5.581-4.245-8.725-5.481-12.608-14.651-17.601-18.955-9.591-42.978-12.012-68.312-14.525-2.118.101-29.647-21.241-59.125-30.42-8.624-2.631-33.446-7.725-57.662-8.683-35.951-1.429-64.749 2.984-78.618 7.153-23.493 7.069-38.312 19.123-49.744 26.663-7.935 3.177-22.729 5.993-29.226 17.803-6.153 11.179-7.464 25.385-8.162 30.756-.269 2.059-.303 12.306 1.084 18.677.63 2.883 1.698 5.8 2.724 7.666h166.06c7.927 0 42.676.168 58.982.168.79 1.042 5.649 6.968 14.601 6.968h110.046c3.892 0 14.037-1.58 16.214-6.573.462-1.025.269-2.227-.387-3.144z" fill="#170E35"/><path d="M154.859 268.639h-18.5c-14.693 0-26.604 14.971-26.604 33.438 0 18.467 11.911 33.437 26.604 33.437h18.5c14.693 0 26.604-14.97 26.604-33.437s-11.911-33.438-26.604-33.438z" fill="#302380"/><path d="M467.352 308.759a111.355 111.355 0 00-1.689-2.328c0-5.338 1.059-17.198 1.059-26.999 0-1.068-1.353-3.615-3.194-5.581-4.245-8.725-5.481-12.609-14.651-17.602-18.955-9.59-42.978-12.011-68.312-14.525-2.118.101-29.647-21.24-59.125-30.419-8.624-2.631-33.446-7.725-57.662-8.683-35.951-1.429-64.749 2.984-78.618 7.153-23.493 7.069-38.312 19.123-49.744 26.662-7.935 3.178-22.729 5.994-29.226 17.803-6.153 11.18-7.464 25.385-8.162 30.756-.269 2.06-.303 12.306 1.084 18.678.63 2.883 1.698 5.799 2.724 7.665h3.017a1.668 1.668 0 001.656-1.924 47.604 47.604 0 01-.563-7.338c0-21.107 13.617-38.221 30.411-38.221 16.795 0 30.412 17.114 30.412 38.221 0 2.513-.194 4.959-.563 7.338a1.668 1.668 0 001.656 1.924h98.042a1.668 1.668 0 001.656-1.924 47.604 47.604 0 01-.563-7.338c0-21.107 13.617-38.221 30.411-38.221 16.795 0 30.412 17.114 30.412 38.221 0 3.253-.328 6.413-.933 9.431.79 1.042 5.648 6.968 14.6 6.968h110.046c3.892 0 14.037-1.58 16.214-6.573.454-1.026.261-2.228-.395-3.144z" fill="#3D2C95"/><path d="M136.359 335.514c14.692 0 26.603-14.97 26.603-33.437s-11.911-33.438-26.603-33.438c-14.693 0-26.604 14.971-26.604 33.438 0 18.467 11.911 33.437 26.604 33.437zM297.408 335.514c14.693 0 26.604-14.97 26.604-33.437s-11.911-33.437-26.604-33.437c-14.692 0-26.603 14.97-26.603 33.437s11.911 33.437 26.603 33.437z" fill="#302380"/><path d="M315.918 268.64h-18.501c-14.693 0-26.604 14.97-26.604 33.437s11.911 33.437 26.604 33.437h18.501c14.693 0 26.604-14.97 26.604-33.437s-11.911-33.437-26.604-33.437z" fill="#302380"/><path d="M412.204 335.514c14.693 0 26.604-14.97 26.604-33.437s-11.911-33.438-26.604-33.438-26.603 14.971-26.603 33.438c0 18.467 11.91 33.437 26.603 33.437z" fill="#170E35"/><path d="M430.705 268.639h-18.501c-14.693 0-26.603 14.971-26.603 33.438 0 18.467 11.91 33.437 26.603 33.437h18.501c14.693 0 26.604-14.97 26.604-33.437s-11.911-33.438-26.604-33.438z" fill="#170E35"/><path d="M448.869 256.241c-18.955-9.591-42.978-12.011-68.312-14.525-2.119.101-29.647-21.241-59.125-30.419-8.624-2.631-33.446-7.725-57.663-8.683-23.46-.933-43.877.622-59.082 2.975 3.807-.159 19.055-1.193 29.007 1.681 15.013 4.329 26.974 18.644 43.398 30.269 6.321 4.472 11.911 8.01 13.836 8.725 1.563.58 6.565 1.689 15.559 1.689 36.295 0 49.206 12.054 49.206 12.054s9.666 1.076 22.855 4.867c28.074 8.061 35.917 20.93 36.799 29.318h36.085c.816-12.499 2.976-31.344 3.909-33.521-1.622-1.488-3.673-2.908-6.472-4.43z" fill="#361A86"/><path d="M295.542 241.716c7.212 0 29.084-2 46.088-2 17.005 0 38.927 2 38.927 2-2.119.101-29.647-21.24-59.125-30.419-8.624-2.631-33.446-7.725-57.663-8.683-23.46-.933-43.877.622-59.082 2.975 3.807-.159 19.055-1.193 29.007 1.681 15.013 4.329 26.974 18.644 43.398 30.269.681.479 1.345.941 2.001 1.404.033.016.042.033.067.05.546.378 1.084.748 1.614 1.11 3.135 1.538 8.691 1.613 14.768 1.613z" fill="#716FFF"/><path d="M467.756 311.903c.445-1.034.252-2.236-.396-3.152a111.355 111.355 0 00-1.689-2.328c0-5.338 1.059-17.198 1.059-26.999 0-1.067-1.353-3.614-3.194-5.581-2.95-6.069-4.455-9.793-8.17-13.172l-23.502-.26s-68.876.756-76.146-.404c0 0-19.636-1.984-34.421.404-4.22.68-7.784 3.715-10.6 7.27 10.146 6.195 17.139 19.266 17.139 34.396 0 1.833-.101 3.631-.302 5.388-.345 3.093.975 6.17 3.564 7.893 2.437 1.622 5.9 3.118 10.397 3.118h110.046c3.892 0 14.037-1.58 16.215-6.573z" fill="#3D2C95"/><path d="M455.349 260.662c-.387.908-.992 4.707-1.622 9.742 1.908 1.505 3.917 2.438 5.194 2.892 1.589.571 4.598.538 4.598.538-2.95-6.061-4.446-9.784-8.17-13.172z" fill="#716FFF"/><path d="M461.838 300.564c-2.404 3.127-3.202 9.128-3.202 9.128s3.051.034 7.035-3.269c0-2.43.219-6.229.454-10.558-1.151 1.11-2.858 2.841-4.287 4.699z" fill="#361A86"/><path d="M378.565 264.865c-11.112-3.194-19.72-4.455-22.157-4.774-.269-.025-.513-.059-.698-.084 0 0-12.684-1.278-25.343-.547.034.034 13.827 11.802 20.459 13.315 6.641 1.513 31.765 3.354 36.43 3.026 3.589-.252 8.019-2.093 10.297-3.295-4.959-2.782-11.188-5.397-18.988-7.641z" fill="#716FFF"/><path d="M387.147 309.692s-24.931-.983-29.949-3.085c-6.876-2.883-10.179-10.733-10.179-10.733s25.637 4.001 28.141 4.639c3.018.774 4.682 1.967 6.288 3.346 1.597 1.362 5.699 5.833 5.699 5.833z" fill="#361A86"/><path d="M209.184 233.571c-.236 4.22-.143 9.247.05 13.727h60.436s-5.085-8.414-16.928-20.401c-7.196-7.279-12.02-12.062-19.064-14.213-2.581-.791-10.591-1.867-21.09-1.572-1.16 4.74-2.9 13.541-3.404 22.459zM155.943 247.298h44.339c.059-3.001.236-6.212.605-9.28 1.135-9.414 4.472-21.157 6.59-26.654-9.784.664-21.114 2.58-32.042 6.842-6.321 2.278-15.886 7.968-20.333 11.347-3.017 2.304-8.338 6.868-12.272 11.978 2.034 2.43 9.179 5.767 13.113 5.767z" fill="#716FFF"/><path d="M228.021 258.368h-10.978a8.348 8.348 0 01-3.984-1.009l-3.287-1.765c-.193-.101-.118-.395.101-.395h8.859c2.783 0 5.523.689 7.969 2.009l1.42.765c.194.109.118.395-.1.395zM395.611 295.201c.109 1.74 1.429 5.161 9.406 6.472 7.279 1.194 22.577.639 30.361.639 7.649 0 18.753-1.084 21.711-1.757 1.959-.445 2.85-3.833 3.379-6.363.521-2.488 1.723-11.725-2.278-16.122-5.018-5.514-22.308-4.917-27.276-4.917-4.967 0-21.257.168-26.637 3.253-5.01 2.875-6.926 8.7-7.557 10.482-1.017 2.883-1.202 6.808-1.109 8.313z" fill="#361A86"/><path d="M467.949 310.205a3.517 3.517 0 00-.285-.916 3.894 3.894 0 00-.303-.538c-.008-.008-.017-.017-.017-.025-.21-.294-.42-.597-.647-.908a76.962 76.962 0 00-1.017-1.395c0-.32.008-.664.008-1.034 0-.126.009-.261.009-.395.008-.252.008-.505.025-.774.008-.159.008-.327.017-.495.008-.261.016-.522.033-.791l.025-.563c.009-.277.026-.555.042-.849l.026-.571.05-.992.025-.462c.026-.446.051-.9.076-1.371v-.042c.311-5.631.723-12.558.723-18.668 0-1.068-1.353-3.615-3.194-5.582-.261-.529-.505-1.05-.748-1.546-.042-.084-.084-.177-.126-.261-.278-.571-.538-1.118-.799-1.656-.118-.235-.235-.479-.345-.706-.1-.21-.201-.412-.302-.613a9.127 9.127 0 00-.261-.513c-.101-.202-.21-.412-.311-.605-.117-.236-.244-.463-.361-.69-.135-.243-.261-.479-.395-.714-.084-.151-.168-.303-.252-.446a20.523 20.523 0 00-.32-.538c-.092-.142-.176-.285-.269-.437a27.059 27.059 0 00-.538-.823l-.277-.404-.353-.479c-.101-.126-.202-.261-.303-.387a24.499 24.499 0 00-.613-.731c-.118-.134-.236-.269-.362-.403a18.896 18.896 0 00-.42-.438c-.126-.126-.252-.243-.378-.369-.152-.143-.295-.286-.446-.429a27.447 27.447 0 00-1.135-.967 19.299 19.299 0 00-.781-.596c-.126-.093-.261-.194-.395-.286-.278-.194-.564-.395-.858-.589-.109-.075-.218-.151-.336-.227-.387-.252-.79-.496-1.21-.748l-.311-.185a52.216 52.216 0 00-1.446-.815c-18.955-9.591-42.978-12.012-68.312-14.525-2.119.101-29.647-21.241-59.125-30.42-8.624-2.631-33.446-7.724-57.663-8.683-1.328-.05-2.647-.092-3.959-.134a51.287 51.287 0 01-1.176-.034c-.942-.025-1.875-.042-2.808-.059-.412-.008-.815-.016-1.227-.016a202.73 202.73 0 00-3.203-.026h-.605c-1.261 0-2.505 0-3.74.017-.328 0-.656.009-.975.009-.925.008-1.841.025-2.757.042a420.46 420.46 0 00-3.934.101l-.807.025c-1.194.042-2.37.084-3.53.134-.211.009-.412.017-.622.034-.959.042-1.9.092-2.842.143-.327.017-.655.033-.975.059-.882.05-1.748.109-2.614.168l-.773.05c-1.126.076-2.236.16-3.329.252h-.05c-1.059.084-2.11.177-3.144.269-.252.026-.496.042-.739.068-.841.075-1.682.159-2.497.243-.227.026-.445.042-.664.068-2.068.218-4.068.453-6.002.697-.159.017-.319.042-.479.059-.807.109-1.605.21-2.395.328l-.555.076a184.2 184.2 0 00-2.623.386c-.016 0-.033.009-.05.009-8.095 1.252-14.718 2.731-19.535 4.177-23.518 7.094-38.337 19.148-49.769 26.688-7.935 3.177-22.729 5.993-29.226 17.803-6.153 11.179-7.464 25.385-8.162 30.756-.269 2.059-.303 12.306 1.084 18.677.63 2.883 1.698 5.8 2.724 7.666h8.96l.151.681c3.371 13.609 13.474 23.493 25.41 23.493h18.501c12.138 0 22.367-10.212 25.561-24.174h41.465c1.169 5.111 3.278 9.717 6.086 13.499 4.858 6.565 11.784 10.675 19.484 10.675h18.501c5.884 0 11.322-2.404 15.727-6.472 4.404 4.068 9.842 6.472 15.726 6.472h18.501c10.003 0 18.703-6.934 23.25-17.189l.218.025c.16.017.311.042.48.059.529.042 1.076.067 1.639.067h47.525a34.536 34.536 0 003.698 6.363c4.859 6.565 11.785 10.675 19.484 10.675h18.501c9.994 0 18.703-6.934 23.25-17.181.462-.05.95-.1 1.463-.176.151-.025.311-.05.462-.076.37-.059.74-.126 1.118-.201.37-.068.74-.152 1.109-.236a36.377 36.377 0 001.833-.479 24.618 24.618 0 002.051-.698c1.824-.714 3.471-1.639 4.606-2.841.025-.025.042-.058.067-.084a6.108 6.108 0 001.093-1.63 3.03 3.03 0 00.244-1.211c0-.168-.025-.328-.051-.496z" fill="url(#paint0_linear)" style="mix-blend-mode:overlay"/><path d="M129.854 347.708c54.043 0 97.854-43.811 97.854-97.854S183.897 152 129.854 152 32 195.811 32 249.854s43.81 97.854 97.854 97.854z" fill="#C93E50"/><path d="M117.474 270.973c-.304-1.388-.455-2.906-.455-4.597 0-4.445.607-8.326 1.843-11.643 1.235-3.318 2.797-6.202 4.661-8.674 1.887-2.471 3.881-4.726 6.006-6.743a317.876 317.876 0 006.006-5.854 31.03 31.03 0 004.662-5.854c1.236-2.017 1.843-4.315 1.843-6.896 0-3.859-1.366-6.895-4.076-9.128-2.71-2.212-6.505-3.339-11.34-3.339-4.553 0-9.15 1.149-13.79 3.404-4.64 2.277-8.695 5.442-12.164 9.497l-4.9-17.042c3.664-4.359 8.542-7.763 14.679-10.235 6.136-2.471 12.706-3.707 19.709-3.707 6.527 0 12.316 1.192 17.346 3.556 5.052 2.363 9.02 5.767 11.947 10.147 2.906 4.402 4.38 9.519 4.38 15.351 0 4.25-.672 7.958-1.994 11.124-1.345 3.165-3.058 5.984-5.183 8.456a93.893 93.893 0 01-6.743 7.047 118.49 118.49 0 00-6.743 6.895 30.7 30.7 0 00-5.182 7.936c-1.323 2.905-1.995 6.353-1.995 10.299h-18.517zm9.193 38.552c-3.751 0-6.83-1.171-9.193-3.491-2.364-2.32-3.556-5.269-3.556-8.825 0-3.556 1.214-6.462 3.643-8.673 2.428-2.234 5.464-3.339 9.128-3.339 3.664 0 6.678 1.127 9.042 3.404 2.363 2.277 3.556 5.139 3.556 8.608 0 3.556-1.193 6.505-3.556 8.825-2.364 2.32-5.421 3.491-9.064 3.491z" fill="#fff"/><defs><linearGradient id="paint0_linear" x1="202.29" y1="353.622" x2="202.29" y2="202.766" gradientUnits="userSpaceOnUse"><stop stop-color="#D52A4E"/><stop offset="1" stop-color="#D52A4E" stop-opacity="0"/></linearGradient></defs></svg>