<svg xmlns="http://www.w3.org/2000/svg" fill="none" viewBox="0 0 500 500"><defs/><path fill="url(#paint0_linear)" d="M250 468a218 218 0 100-436 218 218 0 000 436z"/><mask id="a" width="437" height="436" x="32" y="32" mask-type="alpha" maskUnits="userSpaceOnUse"><path fill="url(#paint1_linear)" d="M250 468a218 218 0 100-436 218 218 0 000 436z"/></mask><g mask="url(#a)"><path fill="#A75C41" d="M250 168.3c-6.6 25-10.3 40.3-8.5 47.2 1.7 7 19.7 41.2 25.1 50.6 5.5 9.4 21.6 20.8 29.6 18.6 8-2.2 52.2-11.5 52.2-11.5l13-124.7L250 168.3z"/><path fill="#E07852" d="M703 139.9s-151 6.4-208.9 5.5c-57.8-.9-71.3 43.7-72.4 73.7-.8 24.7 12 72.3 52.1 71 40-1.4 240.8 20.2 253 18.9 18.9-2 29.7-32.6 36-90.4 4.7-44-22-76-59.7-78.7z"/><path fill="#E07852" d="M333.5 100.8c-33.1-8.5-62.1 36.5-29.1 70.1 27.5 28.1 10.2 51 3.5 65-10.6 22 6.5 78 76.8 66.3 58-9.8 79-11.8 93.9-12.3 14.8-.5 66.6-16.6 67-70.2.4-40.5-24.4-74.6-51.5-74.3-39.7.4-66-11.6-91.4-20-21.1-7-69.2-24.6-69.2-24.6z"/><path fill="#E07852" d="M400.4 201.8c-20.3-26-73.2-25-81.7 9-7.3 29.2-32.4 19-46 28-18.3 12.3-1.4 46.5 33 55.4 17.5 4.4 30.3 7.9 40.6 9 9.3 1 41.2 4 61-10.2 23.6-17 20-56.7-6.9-91.2zM361.7 152c-6.3 18.6-37.4 40.7-51.8 25.3-6.6-7-8.3-10.7-25.6-12.9-26-3.2-30.6-24.8-27.6-41.2 2.7-15.5 15.8-28.4 25.9-31.2 10.6-3 19.4.5 50.9 8.8 32.5 8.5 32 40 28.2 51.2z"/><path fill="#E07852" d="M193.8 196.4c6.6 6.6 22.4 5.6 26.9 1.7 4.5-4 16.6-14.3 23.8-18.6 7.2-4.2 28-14.6 39.8-15 13-.6 30.2-12.6 31.4-40.5 1-22.5-15.3-32.5-27.2-33-17.8-.9-50.5 30.1-77.6 51.4-16.7 13.2-20.6 21.2-23 29-1.4 5-2.4 17 5.9 25z"/><path fill="#E07852" d="M217.3 157c-9-4.9-19.2-2.3-24.1 3.9-5.1 6.3-8 13.4-10.2 23-2.6 10.4-4.5 36.5-5.8 46.5-1.2 10.1-2.8 16-5.2 29.5-2 11.3 1.6 15.6 7.4 15.8 8 .2 12.4-6.7 15.5-10a62.8 62.8 0 0014.4-25.4c1.8-6.6 7.3-36.9 13.4-44 9.3-10.9 10.2-30.9-5.4-39.3z"/><path fill="#F9BA40" d="M276.4 433.1a7.5 7.5 0 10-6.8-13.4 7.5 7.5 0 006.8 13.4zM173.7 362.5l-5.2 1.9c-2.3 1.5-3 3.4-3.1 7 0 12.5 2 31.3 5.9 41.9 1.1 3.1 2.7 6 5.8 7 3.2 1.2 7.4 2.3 10.4 2.3-2.3-19.6-13.8-60.1-13.8-60.1z"/><path fill="#FCDA5B" d="M229.3 280s-8.4-19.8-13.2-22.8c-10.9-6.7-44.6 5-50 11.5-5.7 6.6-4.5 18.5-2.1 43.5 2.3 25 74-11.5 65.3-32.2zm-58 24.6c-1-5.2-1.5-6-1.8-9.5-.9-11.9-.6-18.4 2.8-22.4 4.4-5.1 31.1-14.5 39.8-9.1a34 34 0 017 10.7l2.7 5.7c6.9 16.5-47.1 44.4-50.6 24.6z"/><path fill="#FCDA5B" d="M177.3 285.2c8.6-4.9 25.2-11.9 47.4-12.9 16.6-.7 22.1 15.4 25.2 22 2.9 6 28.8 70 41.4 105.8 10.1 29.1-7.4 38.1-11.8 40.2a142.9 142.9 0 01-70.3 13.2c-17.1-1.7-23.7-9.5-28-29.3a803.8 803.8 0 01-17.3-114c-.3-8-1.2-16.9 13.4-25z"/><path fill="url(#paint2_linear)" d="M166 268.7c-5.6 6.6-4.4 18.5-2 43.6.6 10.8 2.6 29 6 51.5l-1.5.6c-2.3 1.6-3.1 3.5-3.1 7 0 12.5 2 31.3 5.9 42 1.1 3 2.7 6 5.8 7 1.1.4 2.3.8 3.5 1l.6 2.8c4.3 19.8 10.9 27.6 28 29.3 14.9 1.5 42.4-.2 70.3-13.2 4.4-2 22-11 11.7-40.2A2300.3 2300.3 0 00250 294.3c-3-6.4-8.4-22-24.1-22a47.9 47.9 0 00-9.7-15c-11-6.8-44.6 5-50 11.4zm46-5.1a29 29 0 016.4 9.2c-19 1.9-33.4 8-41.1 12.3-3.5 2-6.1 4-8 6-.6-9.4 0-14.9 3-18.4 4.4-5.1 31.1-14.5 39.8-9.1z" style="mix-blend-mode:color-burn"/><path fill="#F9BA40" d="M224.8 303s20.6 50.7 36.1 95.5c1.8 5.2 3.8 15.2-6.7 18.8-17 5.8-36.7 5.7-48.3 5.3-7.6-.2-13.6-3.7-15.2-7-4-8.4-6.8-18-10.9-39.4-4.2-22.2-5.1-45-5-55.4 0-4.6 2.6-8.5 7.6-10.7a199 199 0 0133-11.3c3.2-.7 7.8.1 9.4 4.2z"/><path fill="#F3F3F3" d="M217.6 401l9.6-3.9c.4-.1.6-.6.4-1a.8.8 0 00-1-.5l-8 3.2-1.6-3.8c-.5-1.3.2-2.7 1.4-3.2l2.7-1c1.3-.6 2.7 0 3.2 1.3.2.5.6.7 1 .5.5-.2.7-.7.5-1a4.1 4.1 0 00-5.3-2.4l-2.7 1a4.2 4.2 0 00-2.3 5.4l2.1 5.3z"/><path fill="#F3F3F3" d="M215.6 402.8l2.2 5.4a3.3 3.3 0 004.3 1.9l8.9-3.6a3.3 3.3 0 001.8-4.3l-2.1-5.4a3.3 3.3 0 00-4.3-1.8l-9 3.5a3.3 3.3 0 00-1.8 4.3zm6.4-1.5c-.3-.9.2-2 1.2-2.1.6-.1 1.3.1 1.6.6.5.7.3 1.5-.1 2l.9 2.3c.1.4 0 .8-.4 1-.4 0-.8-.1-1-.5l-.8-2.3c-.6 0-1.1-.4-1.4-1z"/><path fill="#FCDA5B" d="M182.7 391.2l1 2.5 66.3-25.5-1-2.5-66.3 25.5z"/><path fill="#F3F3F3" d="M195.2 363.4l1.5-.5a8.6 8.6 0 004.1-3.3c.9-1.3 2-2.2 3.5-2.8l6.2-2.3c.9-.3 1.9-.5 2.8-.4l3.8.2c1 .1 1.8 0 2.7-.2l2.7-.7c1.8-.5 3.6-.4 5.3.1 1.1.4 2 1.2 2.4 2.3l.4 1.2-3.8 1.4a2.5 2.5 0 01-4.7 1.8l-17.6 6.5a2.5 2.5 0 01-4.8 1.8l-4.7 1.8-1.3-3.6c-.5-1.3.1-2.8 1.5-3.3z"/><path fill="#F3F3F3" d="M202.2 361.4c.3 0 .5-.3.6-.5.1-.4-.1-1-.6-1l-5.6-2a4.5 4.5 0 00-5 1.3c-.2.3-.2.9.2 1.1.3.3.9.3 1.2 0 .7-1 2-1.2 3-.9l5.7 2h.5z"/><path fill="#FCDA5B" d="M175.5 346.8l1 2.5 57.8-22.3-1-2.5-57.8 22.3z"/><path fill="#F3F3F3" d="M192.3 318.3c-.9-2.2.2-4.5 2.3-5.4l2.7-1c2-.8 4.5.2 5.3 2.3l2 5.4-10.3 4-2-5.3zm8.8-3.5c-.5-1.2-2-1.8-3.2-1.4l-2.7 1c-1.3.6-1.9 2-1.4 3.3l1.5 3.7 7.2-2.8-1.4-3.8z"/><path fill="#F3F3F3" d="M192.3 325.4l2 5.5a3.3 3.3 0 004.3 1.8l9-3.4a3.3 3.3 0 001.9-4.3l-2.1-5.4a3.3 3.3 0 00-4.3-1.9l-9 3.5a3.3 3.3 0 00-1.8 4.2zm6.4-1.4a1.6 1.6 0 012.8-1.5c.4.7.3 1.5-.1 2l.8 2.3c.2.4 0 .8-.3 1-.4 0-.8-.1-1-.5l-.8-2.3c-.6 0-1.2-.4-1.4-1z"/><path fill="#E07852" d="M230.4 236.4c9.3-4.1 20.5-6.4 34-4.7 13.5 1.6 22 2.4 32.6 1 15.3-2.3 31.2 6 36 26.7 5.4 23.3-10.8 39.2-27.2 34.8-7.7-2.1-22.3-6-35.5-8.5a183 183 0 00-36.6-4c-8.8.4-22.7 3.8-29.7 4-7.9.1-16.3-5.8-13.2-15 3-9.2 17.8-24.7 39.6-34.3z"/></g><defs><linearGradient id="paint0_linear" x1="200.1" x2="200.1" y1="468" y2="32" gradientUnits="userSpaceOnUse"><stop stop-color="#5833EF"/><stop offset="1" stop-color="#43239C"/></linearGradient><linearGradient id="paint1_linear" x1="250" x2="250" y1="32" y2="468" gradientUnits="userSpaceOnUse"><stop stop-color="#8812E3"/><stop offset="1" stop-color="#361A86"/></linearGradient><linearGradient id="paint2_linear" x1="193.7" x2="314.5" y1="253.5" y2="440.1" gradientUnits="userSpaceOnUse"><stop offset=".2" stop-color="#D52A4E" stop-opacity="0"/><stop offset="1" stop-color="#D52A4E" stop-opacity=".3"/></linearGradient></defs></svg>