<svg width="500" height="500" viewBox="0 0 500 500" fill="none" xmlns="http://www.w3.org/2000/svg">
<path d="M155.579 65.5952C146.714 69.3898 142.603 79.6529 146.397 88.5186L148.115 92.5318C151.91 101.397 162.173 105.508 171.038 101.714L182.804 96.6781L189.987 112.669L162.535 125.867C93.5353 155.266 52.3066 235.212 67.8158 319.035C85.5252 414.75 170.508 479.275 257.63 463.156C273.951 460.136 289.189 454.501 303.061 446.706L337.927 429.273C344.223 426.808 350.379 423.898 356.355 420.552C382.755 405.769 404.58 383.059 419.353 354.999C434.126 326.939 441.257 294.652 439.935 261.802L282.936 254.326L231.671 94.011C228.569 94.941 225.502 95.9723 222.475 97.1026L215.918 82.5051L227.038 77.7458C235.904 73.9513 240.015 63.6881 236.22 54.8224L234.502 50.8092C230.708 41.9436 220.445 37.8326 211.579 41.6271L155.579 65.5952Z" fill="#C4C4C4"/>
<path fill-rule="evenodd" clip-rule="evenodd" d="M439.935 261.802C441.257 294.652 434.127 326.939 419.353 354.999C404.58 383.059 382.755 405.769 356.355 420.552C350.379 423.898 344.224 426.808 337.927 429.273L303.061 446.706C289.189 454.501 273.951 460.136 257.63 463.156C170.508 479.276 85.5254 414.75 67.8159 319.035C52.3068 235.212 93.5355 155.266 162.535 125.867L189.987 112.669L182.804 96.6781L171.039 101.714C162.173 105.509 151.91 101.398 148.115 92.5318L146.398 88.5187C142.603 79.653 146.714 69.3898 155.58 65.5953L211.579 41.6272C220.445 37.8326 230.708 41.9436 234.503 50.8093L236.22 54.8225C240.015 63.6881 235.904 73.9513 227.038 77.7459L215.918 82.5052L222.475 97.1026C225.502 95.9723 228.569 94.941 231.671 94.0111L282.936 254.326L439.935 261.802ZM285.159 251.428L442.822 258.936L442.933 261.682C444.275 295.039 437.036 327.852 422.008 356.397C406.978 384.944 384.752 408.09 357.821 423.17C351.766 426.56 345.528 429.512 339.148 432.017L304.468 449.357C290.331 457.291 274.803 463.03 258.176 466.106C169.17 482.574 82.8275 416.658 64.866 319.58C49.1351 234.559 90.9005 153.165 161.297 123.134L186.053 111.232L181.275 100.596L172.219 104.472C161.83 108.918 149.804 104.101 145.357 93.7123L143.64 89.6991C139.193 79.3102 144.01 67.2837 154.399 62.8373L210.399 38.8692C220.788 34.4227 232.814 39.24 237.261 49.6288L238.978 53.642C243.425 64.0309 238.608 76.0574 228.219 80.5039L219.906 84.0616L224.071 93.3328C226.297 92.5486 228.544 91.8165 230.809 91.1374L233.631 90.2915L285.159 251.428Z" fill="black"/>
<path fill-rule="evenodd" clip-rule="evenodd" d="M415.389 231.736C408.992 162.405 352.371 98.8888 271.285 109.437C265.556 110.182 260.307 106.145 259.561 100.421C258.816 94.6961 262.855 89.4512 268.584 88.7059C364.292 76.256 429.021 151.764 436.223 229.817C436.754 235.565 432.52 240.655 426.767 241.185C421.014 241.715 415.92 237.485 415.389 231.736Z" fill="white"/>
<path fill-rule="evenodd" clip-rule="evenodd" d="M412.402 232.012C406.121 163.946 350.674 102.135 271.672 112.411C264.303 113.37 257.547 108.178 256.586 100.808C255.626 93.4382 260.827 86.6896 268.197 85.7309C366.008 73.0074 431.894 150.244 439.21 229.541C439.893 236.942 434.443 243.49 427.042 244.172C419.641 244.854 413.085 239.412 412.402 232.012ZM271.285 109.437C352.371 98.8887 408.992 162.405 415.389 231.736C415.92 237.484 421.014 241.715 426.767 241.185C432.52 240.655 436.754 235.565 436.223 229.817C429.021 151.763 364.292 76.2559 268.584 88.7058C262.855 89.4511 258.815 94.696 259.561 100.421C260.307 106.145 265.556 110.182 271.285 109.437Z" fill="black"/>
<path d="M175.44 80.2825L208.292 65.5264L227.52 108.334L194.668 123.09L175.44 80.2825Z" fill="#F0F0FF"/>
<path fill-rule="evenodd" clip-rule="evenodd" d="M207.79 66.8483L176.762 80.7849L195.17 121.768L226.198 107.831L207.79 66.8483ZM175.44 80.2825L194.668 123.09L227.52 108.334L208.292 65.5264L175.44 80.2825Z" fill="black"/>
<path d="M188.103 108.474L217.456 86.2613L216.552 83.915L208.293 65.5264L175.44 80.2824L188.103 108.474Z" fill="black"/>
<path d="M146.398 88.5191C142.603 79.6534 146.714 69.3902 155.58 65.5957L211.58 41.6276C220.445 37.833 230.709 41.944 234.503 50.8097L236.221 54.8229C240.015 63.6885 235.904 73.9517 227.039 77.7463L171.039 101.714C162.173 105.509 151.91 101.398 148.116 92.5322L146.398 88.5191Z" fill="#EBEBFF"/>
<path fill-rule="evenodd" clip-rule="evenodd" d="M211.973 42.5469L155.974 66.515C147.616 70.0922 143.74 79.7676 147.317 88.1256L149.035 92.1388C152.612 100.497 162.288 104.372 170.646 100.795L226.645 76.8269C235.003 73.2497 238.879 63.5743 235.301 55.2163L233.584 51.2032C230.007 42.8452 220.331 38.9697 211.973 42.5469ZM155.58 65.5957C146.714 69.3902 142.603 79.6534 146.398 88.5191L148.116 92.5322C151.91 101.398 162.173 105.509 171.039 101.714L227.039 77.7463C235.904 73.9517 240.015 63.6885 236.221 54.8229L234.503 50.8097C230.709 41.944 220.445 37.833 211.58 41.6276L155.58 65.5957Z" fill="black"/>
<path d="M419.353 355C434.127 326.94 441.257 294.653 439.935 261.803L282.936 254.326L231.671 94.0115C220.138 97.4689 209.097 102.328 198.737 108.462L162.536 125.867C93.5358 155.266 52.3071 235.211 67.8162 319.035C85.5257 414.75 170.508 479.275 257.63 463.156C273.951 460.136 289.19 454.5 303.062 446.706L337.923 429.275C344.221 426.81 350.378 423.9 356.355 420.553C382.755 405.77 404.58 383.06 419.353 355Z" fill="url(#paint0_linear_9125_5038)"/>
<path fill-rule="evenodd" clip-rule="evenodd" d="M231.998 93.3916L283.307 253.843L440.417 261.325L440.435 261.783C441.76 294.717 434.612 327.092 419.796 355.233C404.98 383.374 383.088 406.156 356.6 420.989C350.609 424.343 344.438 427.261 338.126 429.733L303.296 447.147C289.38 454.966 274.094 460.618 257.721 463.648C170.286 479.825 85.0763 415.068 67.3248 319.126C51.7787 235.103 93.0968 154.916 162.33 125.411L198.501 108.021C208.89 101.872 219.962 96.9998 231.528 93.5326L231.998 93.3916ZM231.345 94.6322C220.021 98.0684 209.177 102.862 198.992 108.893L198.973 108.904L162.742 126.322L162.732 126.327C93.971 155.624 52.8367 235.325 68.3081 318.944C85.9756 414.432 170.732 478.726 257.54 462.664C273.805 459.655 288.992 454.038 302.817 446.27L302.828 446.264L337.72 428.818L337.741 428.81C344.018 426.353 350.154 423.452 356.111 420.116C382.423 405.383 404.181 382.746 418.911 354.767C433.573 326.918 440.688 294.888 439.454 262.28L282.566 254.809L231.345 94.6322Z" fill="black"/>
<path d="M229.566 428.901L179.958 456.659C204.395 465.458 230.912 468.099 257.63 463.156C273.951 460.136 289.189 454.5 303.061 446.705L337.923 429.275C316.402 437.699 293.235 440.928 269.995 438.634C256.184 437.271 242.601 433.982 229.566 428.901Z" fill="black"/>
<path fill-rule="evenodd" clip-rule="evenodd" d="M302.593 445.822L324.651 434.792C306.973 439.794 288.457 441.462 269.897 439.629C256.148 438.272 242.627 435.02 229.643 430.004L182.378 456.45C206.076 464.603 231.669 466.942 257.448 462.173C273.659 459.173 288.793 453.576 302.572 445.834L302.593 445.822ZM181.21 457.104C180.792 456.957 180.374 456.809 179.958 456.659L229.566 428.901C242.601 433.982 256.184 437.271 269.995 438.634C290.41 440.649 310.768 438.402 330.004 432.116C332.666 431.246 335.307 430.299 337.923 429.275L303.061 446.705C289.189 454.5 273.951 460.136 257.63 463.156C231.368 468.015 205.3 465.546 181.21 457.104Z" fill="black"/>
<path d="M439.936 261.803C441.257 294.653 434.127 326.94 419.354 355C404.58 383.06 382.755 405.77 356.355 420.553C329.955 435.336 300.037 441.6 269.995 438.634C239.954 435.669 210.991 423.593 186.394 403.776C161.797 383.959 142.551 357.195 130.838 326.52C119.126 295.846 115.416 262.489 120.131 230.235C124.845 197.98 137.795 168.12 157.51 144.042C177.226 119.963 202.918 102.631 231.671 94.0115L282.936 254.326L439.936 261.803Z" fill="#EBEBFF"/>
<path fill-rule="evenodd" clip-rule="evenodd" d="M231.998 93.3916L283.307 253.843L440.417 261.325L440.435 261.783C441.76 294.717 434.612 327.092 419.796 355.233C404.98 383.374 383.088 406.156 356.6 420.989C330.111 435.822 300.09 442.107 269.946 439.132C239.803 436.157 210.75 424.04 186.08 404.165C161.412 384.291 142.114 357.452 130.371 326.699C118.628 295.945 114.909 262.502 119.636 230.162C124.363 197.823 137.348 167.877 157.123 143.725C176.9 119.573 202.675 102.182 231.528 93.5326L231.998 93.3916ZM231.345 94.6322C202.88 103.27 177.444 120.486 157.897 144.359C138.242 168.363 125.327 198.138 120.625 230.307C115.923 262.476 119.623 295.747 131.305 326.342C142.987 356.937 162.183 383.627 186.708 403.387C211.233 423.145 240.104 435.181 270.044 438.137C299.984 441.092 329.8 434.85 356.111 420.116C382.423 405.383 404.181 382.746 418.911 354.767C433.573 326.918 440.688 294.888 439.454 262.28L282.566 254.809L231.345 94.6322Z" fill="black"/>
<defs>
<linearGradient id="paint0_linear_9125_5038" x1="238" y1="686" x2="159" y2="69.5" gradientUnits="userSpaceOnUse">
<stop stop-color="#C202D9"/>
<stop offset="1" stop-color="#6151FF"/>
</linearGradient>
</defs>
</svg>
