<?xml version="1.0" encoding="UTF-8" standalone="no"?>
<!DOCTYPE svg PUBLIC "-//W3C//DTD SVG 1.1//EN" "http://www.w3.org/Graphics/SVG/1.1/DTD/svg11.dtd">
<svg width="100%" height="100%" viewBox="0 0 244 30" version="1.1" xmlns="http://www.w3.org/2000/svg" xmlns:xlink="http://www.w3.org/1999/xlink" xml:space="preserve" xmlns:serif="http://www.serif.com/" style="fill-rule:evenodd;clip-rule:evenodd;stroke-linejoin:round;stroke-miterlimit:2;">
    <path d="M28.7,11.6L37.7,11.6L37.7,13.4L34.2,13.4L34.2,22.9L32.2,22.9L32.2,13.4L28.7,13.4L28.7,11.6ZM37.2,14.8L39,14.8L39,16.3L39.3,15.7C39.628,15.249 40.08,14.901 40.6,14.7L41.4,14.5C41.567,14.491 41.733,14.491 41.9,14.5L42.1,14.5L42.1,16.3C41.834,16.281 41.566,16.281 41.3,16.3C40.723,16.306 40.175,16.561 39.8,17C39.5,17.2 39.4,17.5 39.3,17.8L39,19L39,23L37.2,23L37.2,14.8ZM48.5,22.9L50.2,22.9L50.2,14.8L48.4,14.8L48.4,20.4L48,21.1L47.4,21.6L46.4,21.7C46,21.7 45.6,21.6 45.4,21.3C45,21 44.9,20.5 44.9,19.8L44.9,14.8L43.1,14.8L43.1,19.9C43.1,21 43.4,21.9 43.8,22.4C44.3,22.9 45.1,23.2 46.1,23.2C46.6,23.2 47.1,23 47.5,22.8L48.5,21.8L48.5,22.9ZM53.2,20.3C53.2,20.8 53.5,21.2 53.8,21.4L55,21.7L55.6,21.7C55.8,21.7 56,21.7 56.2,21.5C56.4,21.5 56.5,21.4 56.7,21.2L56.8,20.7C56.8,20.4 56.8,20.2 56.6,20.1L56,19.7C55.464,19.578 54.931,19.444 54.4,19.3L54.2,19.3C53.861,19.219 53.527,19.119 53.2,19C52.915,18.907 52.645,18.773 52.4,18.6L51.8,17.9L51.6,16.9C51.6,16.4 51.7,16.1 51.9,15.8C52.2,15.5 52.4,15.2 52.8,15L53.8,14.6L56.2,14.6L57.2,15.1C57.893,15.539 58.338,16.282 58.4,17.1L56.5,17.1C56.5,16.6 56.2,16.3 55.9,16.1L54.9,16C54.564,15.982 54.226,16.016 53.9,16.1C53.78,16.177 53.677,16.28 53.6,16.4C53.4,16.4 53.4,16.6 53.4,16.8C53.4,17 53.4,17.2 53.6,17.3L54.2,17.7L55.8,18.1L56,18.1L57,18.4L57.8,18.8L58.4,19.5L58.6,20.5C58.6,21 58.5,21.4 58.3,21.7C58.1,22.1 57.8,22.4 57.4,22.6C57.055,22.787 56.684,22.921 56.3,23C55.413,23.216 54.487,23.216 53.6,23L52.5,22.5C51.826,21.976 51.452,21.152 51.5,20.3L53.2,20.3ZM60.4,14.8L59.1,14.8L59.1,16L60.4,16L60.4,21L60.5,22L60.9,22.6C61,22.8 61.2,22.9 61.5,23L62.7,23.1C62.966,23.124 63.234,23.124 63.5,23.1L63.8,23.1L63.8,21.6C63.667,21.613 63.533,21.613 63.4,21.6L63.1,21.7L62.6,21.7C62.461,21.65 62.35,21.539 62.3,21.4L62.3,21L62.2,20.5L62.2,16L63.8,16L63.8,14.7L62.2,14.7L62.2,12.2L60.4,12.2L60.4,14.8ZM65,14.8L66.7,14.8L66.7,15.8C67,15.4 67.3,15.1 67.8,14.8C68.783,14.347 69.917,14.347 70.9,14.8C71.4,15.1 71.8,15.4 72.1,15.8L72.8,17.2C73.236,18.75 73.019,20.414 72.2,21.8C71.607,22.705 70.582,23.237 69.5,23.2C68.986,23.19 68.478,23.089 68,22.9C67.51,22.692 67.093,22.344 66.8,21.9L66.8,25.9L65,25.9L65,14.8ZM71.1,17.8L71.2,18.8L71.2,20L70.7,21L70,21.6C69.69,21.752 69.345,21.821 69,21.8C68.655,21.821 68.31,21.752 68,21.6L67.4,21C67.2,20.8 67,20.5 66.9,20.1L66.8,19C66.8,18 66.9,17.4 67.3,16.9C67.7,16.3 68.3,16.1 69,16.1C69.4,16.1 69.7,16.1 70,16.3L70.7,17C70.9,17.2 71,17.5 71.1,17.9L71.1,17.8ZM74.3,11.6L76,11.6L76,13.4L74.3,13.4L74.3,11.6ZM76.1,14.8L74.4,14.8L74.4,22.9L76,22.9L76,14.8L76.1,14.8ZM77.7,11.6L79.5,11.6L79.5,23L77.7,23L77.7,11.6ZM83.2,22.8C83.7,23 84.2,23.2 84.9,23.2C85.6,23.2 86.2,23 86.7,22.8C87.652,22.389 88.382,21.587 88.7,20.6C89.096,19.467 89.096,18.233 88.7,17.1C88.5,16.6 88.3,16.1 87.9,15.8C87.6,15.4 87.2,15.1 86.7,14.8C86.2,14.6 85.6,14.5 84.9,14.5C84.3,14.5 83.7,14.6 83.2,14.9C82.248,15.311 81.518,16.113 81.2,17.1C80.804,18.233 80.804,19.467 81.2,20.6C81.3,21.1 81.6,21.6 81.9,21.9L83.2,22.9L83.2,22.8ZM84.9,21.8C85.638,21.825 86.331,21.439 86.7,20.8L87.1,19.8C87.257,19.143 87.257,18.457 87.1,17.8C87.1,17.4 86.9,17.1 86.7,16.8L86,16.2C85.69,16.048 85.345,15.979 85,16C84.283,15.954 83.594,16.299 83.2,16.9C83.018,17.176 82.883,17.48 82.8,17.8C82.643,18.457 82.643,19.143 82.8,19.8C82.8,20.2 83,20.5 83.2,20.8L83.9,21.5L84.9,21.7L84.9,21.8ZM90.9,14.8L89.5,14.8L89.5,16L91,16L91,22L91.4,22.6L92.1,23L93.2,23.1L94.2,23.1L94.2,21.6C94.1,21.608 94,21.608 93.9,21.6L93.5,21.7L93,21.7C92.898,21.628 92.827,21.521 92.8,21.4L92.7,21.1L92.7,16L94.2,16L94.2,14.7L92.6,14.7L92.6,12.2L91,12.2L91,14.7L90.9,14.8Z" style="fill:white;"/>
    <path d="M26.6,11.8L18.6,11.8L16,4L13.5,11.8L5.4,11.8L11.9,16.6L9.4,24.4L16,19.6L22.6,24.4L20.1,16.6L26.6,11.8Z" style="fill:rgb(22,172,104);fill-rule:nonzero;"/>
    <path d="M20.6,18.4L20.1,16.6L16.1,19.6L20.6,18.4Z" style="fill:rgb(0,81,40);fill-rule:nonzero;"/>
    <g>
        <rect x="107.4" y="3" width="24" height="24" style="fill:rgb(115,207,17);fill-rule:nonzero;"/>
        <path d="M123.6,21.6L119.7,18.4C119.491,18.25 119.209,18.25 119,18.4L115,21.6C114.6,22 114,21.5 114.2,20.9L116.2,16.3C116.3,16.1 116.2,15.8 116,15.6L112.1,13.2C111.6,12.8 111.9,12.1 112.5,12.2L117.1,12.4C117.3,12.4 117.6,12.2 117.7,11.9L118.8,7.2C119,6.6 119.8,6.6 119.9,7.2L121.1,12C121.1,12.2 121.4,12.4 121.7,12.4L126.3,12.1C126.9,12.1 127.1,12.9 126.6,13.2L122.8,15.7C122.5,15.8 122.4,16.1 122.5,16.3L124.5,21C124.8,21.5 124.1,22 123.6,21.6Z" style="fill:white;fill-rule:nonzero;"/>
    </g>
    <g>
        <rect x="135.4" y="3" width="24" height="24" style="fill:rgb(115,207,17);fill-rule:nonzero;"/>
        <path d="M151.6,21.6L147.7,18.4C147.491,18.25 147.209,18.25 147,18.4L143,21.6C142.6,22 142,21.5 142.2,20.9L144.2,16.3C144.3,16.1 144.2,15.8 144,15.6L140.1,13.2C139.6,12.8 139.9,12.1 140.5,12.2L145.1,12.4C145.3,12.4 145.6,12.2 145.7,11.9L146.8,7.2C147,6.6 147.8,6.6 147.9,7.2L149.1,12C149.1,12.2 149.4,12.4 149.7,12.4L154.3,12.1C154.9,12.1 155.1,12.9 154.6,13.2L150.8,15.7C150.5,15.8 150.4,16.1 150.5,16.3L152.5,21C152.8,21.5 152.1,22 151.6,21.6Z" style="fill:white;fill-rule:nonzero;"/>
    </g>
    <g>
        <rect x="163.4" y="3" width="24" height="24" style="fill:rgb(115,207,17);fill-rule:nonzero;"/>
        <path d="M179.6,21.6L175.7,18.4C175.491,18.25 175.209,18.25 175,18.4L171,21.6C170.6,22 170,21.5 170.2,20.9L172.2,16.3C172.3,16.1 172.2,15.8 172,15.6L168.1,13.2C167.6,12.8 167.9,12.1 168.5,12.2L173.1,12.4C173.3,12.4 173.6,12.2 173.7,11.9L174.8,7.2C175,6.6 175.8,6.6 175.9,7.2L177.1,12C177.1,12.2 177.4,12.4 177.7,12.4L182.3,12.1C182.9,12.1 183.1,12.9 182.6,13.2L178.8,15.7C178.5,15.8 178.4,16.1 178.5,16.3L180.5,21C180.8,21.5 180.1,22 179.6,21.6Z" style="fill:white;fill-rule:nonzero;"/>
    </g>
    <g>
        <rect x="191.4" y="3" width="24" height="24" style="fill:rgb(115,207,17);fill-rule:nonzero;"/>
        <path d="M207.6,21.6L203.7,18.4C203.491,18.25 203.209,18.25 203,18.4L199,21.6C198.6,22 198,21.5 198.2,20.9L200.2,16.3C200.3,16.1 200.2,15.8 200,15.6L196.1,13.2C195.6,12.8 195.9,12.1 196.5,12.2L201.1,12.4C201.3,12.4 201.6,12.2 201.7,11.9L202.8,7.2C203,6.6 203.8,6.6 203.9,7.2L205.1,12C205.1,12.2 205.4,12.4 205.7,12.4L210.3,12.1C210.9,12.1 211.1,12.9 210.6,13.2L206.8,15.7C206.5,15.8 206.4,16.1 206.5,16.3L208.5,21C208.8,21.5 208.1,22 207.6,21.6Z" style="fill:white;fill-rule:nonzero;"/>
    </g>
    <g>
        <path d="M243.4,3L219.4,3L219.4,27L243.4,27L243.4,3ZM231.7,18.4L235.7,21.6C236.1,22 236.7,21.6 236.5,21L234.5,16.3C234.5,16.1 234.5,15.8 234.8,15.7L238.6,13.2C239.1,12.9 238.9,12.2 238.3,12.2L233.7,12.4C233.434,12.415 233.188,12.251 233.1,12L231.9,7.2C231.8,6.6 230.9,6.6 230.9,7.2L229.7,11.9C229.6,12.2 229.3,12.4 229.1,12.4L224.5,12.1C223.9,12.1 223.6,12.8 224.1,13.1L228,15.6C228.2,15.8 228.3,16.1 228.2,16.3L226.2,20.9C225.9,21.5 226.6,21.9 227.1,21.6L231,18.4C231.2,18.2 231.5,18.2 231.7,18.4Z" style="fill:white;fill-opacity:0.2;"/>
        <path d="M235.6,21.6L231.7,18.4C231.491,18.25 231.209,18.25 231,18.4L227,21.6C226.6,22 226,21.5 226.2,20.9L228.2,16.3C228.3,16.1 228.2,15.8 228,15.6L224.1,13.2C223.6,12.8 223.9,12.1 224.5,12.2L229.1,12.4C229.3,12.4 229.6,12.2 229.7,11.9L230.8,7.2C231,6.6 231.8,6.6 231.9,7.2L233.1,12C233.1,12.2 233.4,12.4 233.7,12.4L238.3,12.1C238.9,12.1 239.1,12.9 238.6,13.2L234.8,15.7C234.5,15.8 234.4,16.1 234.5,16.3L236.5,21C236.8,21.5 236.1,22 235.6,21.6Z" style="fill:white;fill-rule:nonzero;"/>
    </g>
</svg>
