<svg width="500" height="500" fill="none" xmlns="http://www.w3.org/2000/svg"><g clip-path="url(#clip0)"><path d="M249.813 468.374C370.314 468.374 468 370.688 468 250.187S370.314 32 249.813 32 31.626 129.686 31.626 250.187s97.686 218.187 218.187 218.187z" fill="#EAF9F7"/><mask id="a" maskUnits="userSpaceOnUse" x="-74" y="32" width="543" height="437"><path d="M249.815 32H-73.946v436.374h323.761c120.501 0 218.187-97.686 218.187-218.187S370.316 32 249.815 32z" fill="#C4C4C4"/></mask><g mask="url(#a)"><path d="M441.789 361.616c-24.628 0-44.593-25.094-44.593-56.048s19.965-56.047 44.593-56.047c24.628 0 44.593 25.093 44.593 56.047 0 30.954-19.965 56.048-44.593 56.048z" fill="#1B5943"/><path d="M410.778 249.521h31.011c24.628 0 44.593 25.093 44.593 56.047 0 30.954-19.965 56.048-44.593 56.048h-31.011c-24.628 0-44.593-25.094-44.593-56.048s19.965-56.047 44.593-56.047z" fill="#1B5943"/><path d="M73.197 316.769c.845-1.197 1.69-2.367 2.831-3.902 0-8.947-1.775-28.827-1.775-45.255 0-1.79 2.269-6.059 5.354-9.356 7.115-14.624 9.186-21.134 24.558-29.503 31.772-16.076 72.039-20.134 114.504-24.346 3.551.169 49.694-35.604 99.105-50.99 14.456-4.41 56.062-12.948 96.653-14.554 60.26-2.395 108.531 5.002 131.778 11.99 39.38 11.849 64.219 32.053 83.381 44.692 13.3 5.325 38.098 10.045 48.989 29.841 10.313 18.739 12.511 42.55 13.68 51.553.451 3.452.508 20.627-1.817 31.306-1.057 4.833-2.846 9.722-4.565 12.85h-278.35c-13.286 0-71.531.282-98.865.282-1.324 1.747-9.468 11.68-24.473 11.68H99.727c-6.524 0-23.53-2.649-27.179-11.018-.775-1.719-.45-3.734.649-5.27z" fill="#1B5943"/><path d="M73.197 316.769c.845-1.198 1.69-2.367 2.832-3.903 0-8.947-1.776-28.827-1.776-45.255 0-1.789 2.269-6.058 5.354-9.355 7.115-14.625 9.186-21.134 24.558-29.503 31.772-16.076 72.039-20.134 114.504-24.347 3.551.169 49.694-35.604 99.105-50.989 14.456-4.41 56.062-12.948 96.653-14.555 60.26-2.395 108.531 5.002 131.778 11.991 39.38 11.849 64.219 32.053 83.381 44.691 13.3 5.326 38.098 10.046 48.989 29.841 10.313 18.739 12.511 42.55 13.68 51.553.451 3.452.508 20.627-1.817 31.307-1.057 4.833-2.846 9.722-4.565 12.849h-5.058c-1.719 0-3.043-1.521-2.776-3.226a79.8 79.8 0 00.944-12.3c0-35.378-22.825-64.064-50.975-64.064-28.151 0-50.975 28.686-50.975 64.064 0 4.213.324 8.313.944 12.3.267 1.705-1.057 3.226-2.776 3.226H410.862c-1.718 0-3.043-1.521-2.775-3.226a79.8 79.8 0 00.944-12.3c0-35.378-22.825-64.064-50.975-64.064-28.151 0-50.976 28.686-50.976 64.064 0 5.453.55 10.75 1.564 15.808-1.324 1.747-9.468 11.68-24.473 11.68H99.713c-6.524 0-23.53-2.648-27.179-11.018-.76-1.718-.436-3.733.663-5.269z" fill="#2A9C8D"/><path d="M358.057 361.616c-24.628 0-44.593-25.093-44.593-56.047 0-30.955 19.965-56.048 44.593-56.048 24.628 0 44.592 25.093 44.592 56.048 0 30.954-19.964 56.047-44.592 56.047z" fill="#306D57"/><path d="M327.032 249.521h31.011c24.628 0 44.593 25.093 44.593 56.047 0 30.954-19.965 56.048-44.593 56.048h-31.011c-24.628 0-44.593-25.094-44.593-56.048s19.965-56.047 44.593-56.047z" fill="#306D57"/><path d="M165.639 361.616c-24.628 0-44.593-25.094-44.593-56.048s19.965-56.047 44.593-56.047c24.628 0 44.592 25.093 44.592 56.047 0 30.954-19.964 56.048-44.592 56.048z" fill="#1B5943"/><path d="M134.628 249.521h31.011c24.628 0 44.592 25.093 44.592 56.047 0 30.954-19.964 56.048-44.592 56.048h-31.011c-24.628 0-44.593-25.094-44.593-56.048s19.965-56.047 44.593-56.047z" fill="#1B5943"/><path d="M104.179 228.739c31.772-16.076 72.039-20.133 114.505-24.346 3.55.169 49.693-35.604 99.104-50.989 14.456-4.41 56.062-12.949 96.653-14.555 39.324-1.564 73.547 1.043 99.035 4.988-6.383-.268-31.941-2.001-48.623 2.818-25.163 7.256-45.213 31.25-72.743 50.736-10.596 7.495-19.965 13.427-23.191 14.624-2.621.973-11.004 2.832-26.08 2.832-60.838 0-82.479 20.204-82.479 20.204s-16.203 1.804-38.309 8.158c-47.059 13.512-60.204 35.083-61.683 49.144H99.882c-1.367-20.951-4.988-52.539-6.552-56.188 2.72-2.494 6.157-4.875 10.849-7.426z" fill="#2A9C8D"/><path d="M361.184 204.393c-12.089 0-48.75-3.353-77.253-3.353-28.502 0-65.247 3.353-65.247 3.353 3.55.169 49.693-35.604 99.104-50.989 14.456-4.41 56.062-12.949 96.653-14.555 39.324-1.564 73.547 1.043 99.035 4.988-6.383-.268-31.941-2.001-48.623 2.818-25.163 7.256-45.213 31.25-72.743 50.736-1.142.803-2.255 1.578-3.354 2.353-.056.028-.07.056-.112.084-.916.634-1.818 1.254-2.705 1.86-5.256 2.578-14.569 2.705-24.755 2.705z" fill="#93D7C4"/><path d="M72.521 322.039c-.746-1.733-.422-3.748.662-5.284.846-1.197 1.691-2.367 2.832-3.902 0-8.947-1.775-28.827-1.775-45.256 0-1.789 2.269-6.058 5.354-9.355 4.946-10.172 7.468-16.414 13.695-22.078l39.394-.437s115.448 1.268 127.636-.676c0 0 32.912-3.325 57.696.676 7.072 1.142 13.046 6.228 17.766 12.188-17.006 10.383-28.728 32.292-28.728 57.653 0 3.072.169 6.087.507 9.032.578 5.184-1.634 10.341-5.974 13.23-4.086 2.719-9.89 5.227-17.428 5.227H99.7c-6.524 0-23.53-2.649-27.179-11.018z" fill="#2A9C8D"/><path d="M93.316 236.149c.648 1.522 1.662 7.89 2.72 16.33-3.2 2.522-6.567 4.086-8.708 4.847-2.663.958-7.707.901-7.707.901 4.945-10.158 7.453-16.4 13.695-22.078z" fill="#93D7C4"/><path d="M82.44 303.032c4.03 5.241 5.369 15.301 5.369 15.301s-5.115.057-11.793-5.48c0-4.072-.367-10.441-.761-17.697 1.93 1.86 4.79 4.762 7.186 7.876z" fill="#316B56"/><path d="M222.024 243.195c18.626-5.354 33.054-7.467 37.14-8.003.45-.042.859-.098 1.169-.141 0 0 21.261-2.141 42.479-.915-.056.056-23.177 19.781-34.293 22.317-11.131 2.536-53.244 5.622-61.063 5.072-6.017-.422-13.442-3.508-17.26-5.523 8.313-4.663 18.753-9.045 31.828-12.807z" fill="#93D7C4"/><path d="M207.639 318.333s41.789-1.649 50.2-5.171c11.525-4.833 17.062-17.992 17.062-17.992s-42.972 6.706-47.171 7.777c-5.058 1.296-7.848 3.297-10.539 5.608-2.677 2.282-9.552 9.778-9.552 9.778z" fill="#316B56"/><path d="M505.937 190.74c.395 7.073.24 15.499-.084 23.008H404.55s8.524-14.103 28.376-34.195c12.061-12.201 20.148-20.218 31.955-23.825 4.325-1.324 17.753-3.128 35.35-2.635 1.945 7.947 4.861 22.698 5.706 37.647z" fill="#93D7C4"/><path d="M193.449 294.043c-.183 2.917-2.395 8.651-15.766 10.849-12.201 2.001-37.844 1.071-50.891 1.071-12.821 0-31.433-1.818-36.392-2.945-3.283-.747-4.777-6.425-5.665-10.665-.873-4.171-2.888-19.655 3.819-27.024 8.411-9.242 37.393-8.242 45.72-8.242 8.327 0 35.632.282 44.649 5.452 8.397 4.819 11.61 14.583 12.666 17.57 1.705 4.833 2.015 11.412 1.86 13.934z" fill="#316B56"/><path d="M72.196 319.193a5.885 5.885 0 01.48-1.536c.14-.31.31-.606.506-.902.014-.014.029-.028.029-.042.352-.493.704-1 1.085-1.522.507-.718 1.056-1.465 1.704-2.339 0-.535-.014-1.113-.014-1.733 0-.211-.014-.436-.014-.662-.014-.422-.014-.845-.042-1.296-.014-.268-.014-.549-.028-.831a43.453 43.453 0 00-.057-1.325l-.042-.944c-.014-.465-.042-.93-.07-1.423l-.043-.958-.084-1.662-.042-.775c-.043-.747-.085-1.508-.127-2.297v-.07c-.522-9.44-1.212-21.05-1.212-31.293 0-1.789 2.269-6.058 5.354-9.355.437-.888.845-1.761 1.254-2.592.07-.141.14-.296.211-.437.465-.958.902-1.874 1.339-2.776.197-.394.394-.803.577-1.183.17-.353.339-.691.508-1.029.14-.296.281-.578.436-.859.17-.338.353-.691.522-1.015.197-.394.408-.775.606-1.155.225-.409.436-.803.662-1.198.14-.253.282-.507.422-.746.17-.296.353-.606.536-.902.155-.24.296-.479.45-.733.297-.465.593-.93.902-1.381l.465-.676.592-.803c.17-.211.338-.437.507-.648.324-.409.677-.817 1.029-1.226.197-.225.394-.451.606-.676.225-.24.465-.493.704-.733.212-.211.423-.408.634-.62.254-.239.493-.479.747-.718.394-.352.789-.705 1.212-1.057l.69-.564c.423-.338.86-.676 1.31-1 .212-.155.437-.324.662-.479.465-.324.945-.662 1.438-.986.183-.127.366-.254.563-.381a66.43 66.43 0 012.029-1.254c.169-.098.352-.211.521-.31.775-.45 1.564-.901 2.424-1.366 31.771-16.076 72.039-20.134 114.504-24.347 3.551.169 49.693-35.603 99.105-50.989 14.455-4.41 56.061-12.948 96.653-14.554 2.226-.085 4.438-.155 6.636-.226.662-.014 1.31-.028 1.972-.056 1.578-.042 3.142-.071 4.706-.099.691-.014 1.367-.028 2.057-.028 1.804-.028 3.593-.042 5.368-.042h1.015c2.113 0 4.199 0 6.27.028.549 0 1.099.014 1.634.014 1.55.014 3.086.042 4.621.071l1.902.042c1.578.042 3.142.084 4.692.127l1.353.042c2 .07 3.973.141 5.917.225.352.014.691.028 1.043.057 1.606.07 3.184.155 4.762.239.55.028 1.099.057 1.634.099 1.48.084 2.931.183 4.382.282l1.296.084c1.888.127 3.748.268 5.58.423h.084c1.776.141 3.537.296 5.27.451.423.042.831.07 1.24.112 1.409.127 2.818.268 4.184.409.381.042.747.07 1.113.113 3.466.366 6.82.76 10.06 1.169.268.028.536.071.803.099 1.353.183 2.691.352 4.016.549l.93.127c1.493.211 2.958.423 4.395.648.029 0 .057.014.085.014 13.568 2.1 24.67 4.579 32.744 7.003 39.422 11.891 64.261 32.095 83.423 44.733 13.3 5.326 38.098 10.046 48.989 29.842 10.313 18.739 12.511 42.55 13.68 51.553.451 3.452.508 20.627-1.817 31.306-1.057 4.833-2.846 9.722-4.565 12.85H670.854l-.254 1.141c-5.65 22.811-22.585 39.38-42.592 39.38h-31.011c-20.345 0-37.492-17.119-42.846-40.521h-69.503c-1.958 8.566-5.494 16.287-10.2 22.627-8.144 11.004-19.754 17.894-32.659 17.894h-31.011c-9.863 0-18.979-4.03-26.361-10.849-7.383 6.819-16.499 10.849-26.362 10.849h-31.01c-16.767 0-31.349-11.624-38.971-28.813l-.367.042c-.267.028-.521.071-.803.099-.888.07-1.803.113-2.747.113h-79.662c-1.733 3.86-3.818 7.439-6.199 10.665-8.144 11.004-19.753 17.894-32.659 17.894h-31.011c-16.752 0-31.349-11.624-38.971-28.799-.775-.084-1.592-.169-2.452-.296-.253-.042-.52-.084-.775-.127a46.42 46.42 0 01-1.873-.338c-.62-.112-1.24-.253-1.86-.394a62.016 62.016 0 01-3.072-.803 40.97 40.97 0 01-3.438-1.17c-3.057-1.197-5.818-2.747-7.72-4.762-.043-.042-.07-.099-.113-.141-.761-.831-1.395-1.747-1.832-2.733a5.072 5.072 0 01-.408-2.029c0-.282.042-.55.084-.831z" fill="url(#paint0_linear)" style="mix-blend-mode:overlay"/></g></g><path fill-rule="evenodd" clip-rule="evenodd" d="M369.9 451.65c45.15 0 81.75-36.6 81.75-81.75 0-45.149-36.6-81.75-81.75-81.75-45.149 0-81.75 36.601-81.75 81.75 0 45.15 36.601 81.75 81.75 81.75z" fill="url(#paint1_linear)"/><path fill-rule="evenodd" clip-rule="evenodd" d="M413.015 339.645c3.528 3.282 3.555 8.629.061 11.942l-51.153 48.512c-1.689 1.601-3.989 2.502-6.388 2.502s-4.699-.901-6.387-2.502l-22.426-21.268c-3.494-3.313-3.467-8.66.061-11.941 3.528-3.282 9.22-3.257 12.714.057l16.038 15.21 44.766-42.454c3.494-3.314 9.187-3.339 12.714-.058z" fill="#fff"/><defs><linearGradient id="paint0_linear" x1="481.079" y1="393.008" x2="400.855" y2="177.624" gradientUnits="userSpaceOnUse"><stop stop-color="#D52A4E"/><stop offset="1" stop-color="#D52A4E" stop-opacity="0"/></linearGradient><linearGradient id="paint1_linear" x1="1062.78" y1="369.9" x2="288.15" y2="369.9" gradientUnits="userSpaceOnUse"><stop stop-color="#5833EF"/><stop offset="1" stop-color="#28D8A3"/></linearGradient><clipPath id="clip0"><path fill="#fff" transform="translate(32 32)" d="M0 0h436v436H0z"/></clipPath></defs></svg>