<svg width="500" height="500" fill="none" xmlns="http://www.w3.org/2000/svg"><path d="M266.72 63.384h-31.201v27.637h31.201V63.384zM377.909 138.084l9.982-9.967 11.272 11.217-10.016 9.967-11.238-11.217zM102.6 138.253l11.271-11.216 10.016 9.966-11.272 11.217-10.015-9.967z" fill="#361A86"/><path fill-rule="evenodd" clip-rule="evenodd" d="M219.117 31.964h64.033c1.63 0 2.988 1.318 2.988 2.973v25.542a2.963 2.963 0 01-2.988 2.973h-64.033a2.963 2.963 0 01-2.987-2.973V34.937a2.963 2.963 0 012.987-2.973zm172.1 78.923l-9.235 9.19a1.504 1.504 0 000 2.162l23.087 23.008a1.522 1.522 0 002.173 0l9.235-9.19a1.567 1.567 0 000-2.162l-23.087-23.008a1.522 1.522 0 00-2.173 0zM85.349 132.814l23.087-23.008a1.522 1.522 0 012.173 0l9.235 9.19a1.567 1.567 0 010 2.162l-23.087 23.008a1.522 1.522 0 01-2.173 0l-9.235-9.189c-.611-.609-.611-1.588 0-2.163zm358.29 143.081C443.639 381.982 357.097 468 250.32 468 143.542 468 57 381.982 57 275.895c0-106.086 86.542-192.07 193.32-192.104 106.777 0 193.319 86.018 193.319 192.104z" fill="url(#paint0_linear)"/><path d="M250.321 436.478c88.987 0 161.1-71.896 161.1-160.583s-72.113-160.549-161.1-160.549c-88.986 0-161.1 71.896-161.1 160.583s72.148 160.549 161.1 160.549z" fill="#F9F7FF"/><path d="M255.412 263.394V133.388c0-2.805-2.275-5.068-5.093-5.068s-5.093 2.263-5.093 5.068v130.006c-6.009 2.433-9.472 8.751-8.216 15.136 1.256 6.352 6.824 10.947 13.309 10.947 6.485 0 12.087-4.595 13.309-10.947 1.256-6.385-2.207-12.703-8.216-15.136z" fill="#D52A4E"/><path d="M392.61 145.889l6.553-6.521 5.908 5.879a1.521 1.521 0 002.172 0l9.235-9.19a1.567 1.567 0 000-2.162l-23.087-23.008a1.522 1.522 0 00-2.173 0l-9.234 9.19a1.502 1.502 0 000 2.162l5.907 5.912-6.552 6.555c-30.693-28.11-70.552-46.455-114.621-50.138V63.452h16.433a2.964 2.964 0 002.988-2.973V34.937a2.964 2.964 0 00-2.988-2.973h-64.033a2.963 2.963 0 00-2.987 2.973v25.542a2.963 2.963 0 002.987 2.973h16.399v20.98c-44.137 3.346-84.132 21.319-115.028 49.159l-6.586-6.555 5.941-5.912a1.567 1.567 0 000-2.162l-9.235-9.19a1.522 1.522 0 00-2.173 0L85.349 132.78a1.504 1.504 0 000 2.162l9.235 9.19a1.522 1.522 0 002.173 0l5.908-5.879 6.518 6.487C76.828 179.1 57 225.183 57 275.895 57 381.982 143.542 468 250.32 468c106.777 0 193.319-86.018 193.319-192.105.034-50.137-19.352-95.782-51.029-130.006z" fill="url(#paint1_linear)" style="mix-blend-mode:overlay"/><defs><linearGradient id="paint0_linear" x1="206.096" y1="468" x2="206.096" y2="31.964" gradientUnits="userSpaceOnUse"><stop stop-color="#5833EF"/><stop offset="1" stop-color="#43239C"/></linearGradient><linearGradient id="paint1_linear" x1="182.196" y1="182.341" x2="326.373" y2="518.322" gradientUnits="userSpaceOnUse"><stop stop-color="#D52A4E" stop-opacity="0"/><stop offset="0" stop-color="#D52A4E" stop-opacity=".025"/><stop offset="1" stop-color="#D52A4E"/></linearGradient></defs></svg>