<svg width="500" height="500" fill="none" xmlns="http://www.w3.org/2000/svg"><path d="M266.701 63.417h-31.199v27.635h31.199V63.417zM377.881 138.111l9.981-9.966 11.271 11.216-10.015 9.966-11.237-11.216zM102.595 138.281l11.271-11.216 10.015 9.966-11.271 11.216-10.015-9.966z" fill="#361A86"/><path fill-rule="evenodd" clip-rule="evenodd" d="M219.105 32h64.027c1.63 0 2.988 1.318 2.988 2.973v25.54a2.963 2.963 0 01-2.988 2.973h-64.027a2.963 2.963 0 01-2.987-2.973v-25.54A2.963 2.963 0 01219.105 32zm172.086 78.916l-9.234 9.189a1.504 1.504 0 000 2.162l23.085 23.006a1.522 1.522 0 002.173 0l9.234-9.189a1.567 1.567 0 000-2.162l-23.085-23.006a1.522 1.522 0 00-2.173 0zM85.348 132.842l23.085-23.006a1.522 1.522 0 012.173 0l9.234 9.189a1.567 1.567 0 010 2.162l-23.086 23.006a1.522 1.522 0 01-2.172 0l-9.234-9.189c-.611-.608-.611-1.588 0-2.162zm358.259 143.069C443.607 381.989 357.072 468 250.304 468 143.535 468 57 381.989 57 275.911c0-106.077 86.535-192.054 193.304-192.088 106.768 0 193.303 86.011 193.303 192.088z" fill="url(#paint0_linear)"/><path d="M250.304 436.481c88.98 0 161.087-71.89 161.087-160.57 0-88.679-72.107-160.535-161.087-160.535-88.979 0-161.086 71.89-161.086 160.569 0 88.68 72.141 160.536 161.086 160.536z" fill="url(#paint1_linear)"/><path d="M255.398 263.411V133.415c0-2.804-2.275-5.067-5.093-5.067s-5.092 2.263-5.092 5.067v129.996c-6.009 2.433-9.472 8.75-8.216 15.135 1.256 6.351 6.824 10.945 13.308 10.945s12.086-4.594 13.308-10.945c1.256-6.385-2.207-12.702-8.215-15.135z" fill="#D52A4E"/><path d="M392.583 145.915l6.552-6.52 5.907 5.878a1.52 1.52 0 002.172 0l9.235-9.188a1.568 1.568 0 000-2.163l-23.086-23.006a1.521 1.521 0 00-2.172 0l-9.234 9.189a1.504 1.504 0 000 2.162l5.907 5.912-6.552 6.554c-30.69-28.107-70.546-46.451-114.611-50.133V63.486h16.431a2.963 2.963 0 002.988-2.973v-25.54A2.963 2.963 0 00283.132 32h-64.027a2.963 2.963 0 00-2.988 2.973v25.54a2.963 2.963 0 002.988 2.973h16.397v20.979c-44.133 3.344-84.125 21.316-115.018 49.153l-6.586-6.553 5.941-5.912a1.567 1.567 0 000-2.162l-9.234-9.189a1.522 1.522 0 00-2.173 0l-23.085 23.006a1.504 1.504 0 000 2.162l9.234 9.189a1.522 1.522 0 002.173 0l5.907-5.879 6.518 6.487C76.826 179.124 57 225.203 57 275.911 57 381.989 143.535 468 250.304 468c106.768 0 193.303-86.011 193.303-192.089.034-50.133-19.35-95.774-51.024-129.996z" fill="url(#paint2_linear)" style="mix-blend-mode:overlay"/><defs><linearGradient id="paint0_linear" x1="206.084" y1="468" x2="206.084" y2="32" gradientUnits="userSpaceOnUse"><stop stop-color="#5833EF"/><stop offset="1" stop-color="#43239C"/></linearGradient><linearGradient id="paint1_linear" x1="185.181" y1="135.329" x2="315.862" y2="420.199" gradientUnits="userSpaceOnUse"><stop stop-color="#5833EF"/><stop offset=".701" stop-color="#3F20A1"/><stop offset=".931" stop-color="#361A86"/></linearGradient><linearGradient id="paint2_linear" x1="182.185" y1="182.365" x2="326.351" y2="518.317" gradientUnits="userSpaceOnUse"><stop stop-color="#D52A4E" stop-opacity="0"/><stop offset="0" stop-color="#D52A4E" stop-opacity=".025"/><stop offset="1" stop-color="#D52A4E"/></linearGradient></defs></svg>